<svg xmlns="http://www.w3.org/2000/svg" version="1.1" xmlns:xlink="http://www.w3.org/1999/xlink"
     width="1000" height="1000">
    <g clip-path="url(#SvgjsClipPath1074)">
        <rect width="1000" height="1000" fill="#ffffff"></rect>
        <g transform="matrix(18.75,0,0,18.75,50,50)">
            <svg xmlns="http://www.w3.org/2000/svg" version="1.1" xmlns:xlink="http://www.w3.org/1999/xlink"
                 width="48" height="48">
                <svg xmlns="http://www.w3.org/2000/svg" xmlns:xlink="http://www.w3.org/1999/xlink" width="48"
                     height="48">
                    <path d="M34.8803 8.08999L38.3312 8.07398C37.9661 12.1714 38.2149 16.4427 38.2266 20.5583L38.2099 40.4314C35.465 36.9446 30.3273 32.5617 26.8513 29.5918C25.3591 28.6343 23.9131 29.0987 22.2773 29.3871Q20.9908 27.856 19.606 26.4133C22.1228 26.0344 24.6056 25.4729 27.1301 25.1124C29.884 26.6778 32.1192 29.591 34.5782 31.6432C34.4426 29.1812 34.2109 9.1908 34.7053 8.35311C34.7595 8.26131 34.8143 8.17379 34.8803 8.08999Z"></path>
                    <path d="M9.18936 8.30606C11.2383 8.76469 18.4732 17.3295 21.3573 19.0344C22.3038 18.949 23.3976 18.7614 24.3397 18.8799C25.7899 19.0624 26.6215 20.577 27.4501 21.6377C24.9272 22.0135 22.4119 22.5963 19.8952 23.0363C17.5061 21.2401 15.7649 18.4904 13.2181 16.8927L13.0039 17.0127L12.9663 19.1875L12.9478 39.9856L9.02566 40.0664C9.35548 32.6916 9.03274 25.1426 9.01564 17.7495C9.00842 14.6319 8.84296 11.4029 9.18936 8.30606Z"></path>
                </svg>
            </svg>
        </g>
    </g>
    <defs>
        <clipPath id="SvgjsClipPath1074">
            <rect width="1000" height="1000" x="0" y="0" rx="300" ry="300"></rect>
        </clipPath>
    </defs>
</svg>