<svg xmlns="http://www.w3.org/2000/svg" version="1.1" xmlns:xlink="http://www.w3.org/1999/xlink" width="31" height="32" viewBox="0 0 32 31">
    <path d="M26.5306 0L30.3887 0L31 0L31 31.5729L30.0424 31.8112L29.541 31.8223C28.9084 30.2963 19.3636 21.8649 17.7263 20.9199C16.5754 21.0105 15.417 21.2121 14.2721 21.366Q12.9294 19.9011 11.6097 18.4153C14.1238 18.0389 16.6044 17.4734 19.1257 17.1095C21.924 18.7557 23.9799 21.5887 26.5859 23.5571C26.1259 15.7927 26.5199 7.78864 26.5306 0ZM30.3887 0C29.7387 5.13661 30.9417 29.8798 30.0424 31.8112L31 31.5729L31 0L30.3887 0Z" fill="currentColor"/>
    <path d="M0 0L1.10773 0L1.63245 0C2.25641 1.42743 11.6997 10.0796 13.3561 11.03C14.7006 10.9214 16.6026 10.5167 17.7215 11.4627C18.3751 12.0153 18.9409 12.9295 19.4553 13.6199C16.9525 14.0853 14.3438 14.8104 11.8144 15.012C9.4699 12.851 7.32047 10.4735 4.91822 8.37917C4.84699 16.0907 5.19359 23.8895 4.78902 31.5829C4.56794 31.7172 4.33159 31.814 4.08201 31.8815C3.05295 32.1599 1.93521 32.0949 1.00417 31.5619L0 31.5625L0 0ZM0 0L0 31.5625L1.00417 31.5619C1.27009 21.0635 0.590324 10.4804 1.10773 0L0 0Z" fill="currentColor"/>
</svg>